<svg width="160" height="160" viewBox="0 0 160 160" fill="none" xmlns="http://www.w3.org/2000/svg">
<rect width="160" height="160" rx="80" fill="white"/>
<path d="M80.0002 132.416C110.928 132.416 136 107.344 136 76.4167C136 45.4889 110.928 20.417 80.0002 20.417C49.0724 20.417 24.0005 45.4889 24.0005 76.4167C24.0005 107.344 49.0724 132.416 80.0002 132.416Z" fill="#EBEBEB"/>
<path d="M129.046 86.4057C128.793 86.964 128.331 87.4002 127.758 87.6195C127.186 87.8387 126.55 87.8234 125.989 87.5769C125.428 87.3303 124.987 86.8724 124.762 86.3026C124.536 85.7327 124.544 85.0969 124.785 84.5331C125.97 81.8333 125.855 78.6256 124.586 75.947C124.222 75.1756 123.762 74.4538 123.215 73.7994C122.115 72.4833 119.717 70.4097 116.05 71.2963C110.107 72.7309 110.046 77.8618 112.849 91.5895C113.803 96.2635 113.175 99.9049 110.983 102.416C109.091 104.581 106.521 105.277 104.82 105.495C103.81 105.622 103.108 105.58 103.034 105.575C102.428 105.523 101.867 105.235 101.471 104.775C101.074 104.314 100.874 103.716 100.912 103.11C100.951 102.503 101.225 101.935 101.676 101.528C102.128 101.121 102.72 100.907 103.328 100.931C103.41 100.935 106.036 101.028 107.496 99.3315C108.127 98.5951 108.444 97.6261 108.562 96.5872C108.719 95.2288 108.539 93.7498 108.287 92.5205C107.039 86.4099 106.047 80.9975 106.523 76.6431C107.107 71.3026 109.946 67.9829 114.959 66.7705C119.423 65.6914 123.733 67.1661 126.784 70.8118C127.072 71.1568 127.344 71.5137 127.599 71.8824C130.487 76.0845 131.088 81.7571 129.046 86.4057Z" fill="white"/>
<path d="M129.046 86.4056C128.793 86.964 128.33 87.4001 127.758 87.6194C127.186 87.8387 126.55 87.8234 125.989 87.5768C125.428 87.3303 124.987 86.8724 124.761 86.3025C124.536 85.7326 124.544 85.0968 124.784 84.5331C125.969 81.8332 125.855 78.6256 124.585 75.9469C126.039 74.9271 127.287 73.5814 127.598 71.8823C130.487 76.0844 131.087 81.7571 129.046 86.4056Z" fill="#FFBC1F"/>
<g opacity="0.3">
<path d="M125.049 86.8582C124.802 86.5289 124.648 86.1399 124.602 85.7313C124.555 85.3227 124.618 84.9091 124.784 84.5329C125.969 81.833 125.855 78.6254 124.585 75.9467C124.222 75.1753 123.761 74.4536 123.214 73.7991C122.114 72.483 119.717 70.4095 116.05 71.296C110.107 72.7306 110.045 77.8616 112.849 91.5893C113.803 96.2632 113.175 99.9046 110.983 102.416C109.091 104.581 106.52 105.277 104.819 105.495C103.81 105.622 103.107 105.579 103.033 105.575C102.428 105.523 101.867 105.235 101.47 104.774C101.074 104.314 100.873 103.716 100.912 103.109C100.95 102.503 101.225 101.935 101.676 101.528C102.127 101.121 102.72 100.907 103.327 100.931C103.41 100.935 106.036 101.028 107.496 99.3312C108.126 98.5949 108.443 97.6258 108.562 96.5869C108.782 96.6171 108.998 96.6716 109.206 96.7494C110.206 97.1303 111.276 96.3855 111.237 95.3166C111.214 94.6594 111.124 93.8431 110.934 92.8292C110.029 87.9775 104.415 70.7777 116.647 69.3431C127.353 68.0884 131.087 82.4255 125.049 86.8582Z" fill="#363636"/>
</g>
<path d="M103.42 106.433C103.166 106.433 103.01 106.422 102.974 106.42C102.141 106.358 101.366 105.969 100.817 105.339C100.268 104.709 99.9901 103.888 100.043 103.054C100.096 102.22 100.475 101.441 101.099 100.885C101.723 100.329 102.541 100.042 103.376 100.085C103.387 100.085 105.664 100.162 106.853 98.7791C107.816 97.6589 108.031 95.4965 107.458 92.6909C106.195 86.5084 105.19 81.027 105.68 76.5507C106.308 70.8188 109.362 67.2515 114.758 65.9481C119.546 64.7911 124.166 66.3658 127.433 70.2687C131.209 74.7801 132.168 81.4015 129.82 86.7453C129.655 87.1298 129.415 87.4776 129.114 87.7688C128.813 88.06 128.458 88.2889 128.068 88.4421C127.678 88.5954 127.262 88.6701 126.844 88.6619C126.425 88.6536 126.012 88.5627 125.629 88.3942C125.246 88.2258 124.9 87.9832 124.611 87.6804C124.321 87.3776 124.095 87.0206 123.945 86.63C123.794 86.2393 123.722 85.8227 123.733 85.4042C123.745 84.9857 123.838 84.5736 124.009 84.1915C125.41 81.0054 124.83 77.0475 122.566 74.3426C121.592 73.178 119.474 71.3381 116.249 72.1184C111.318 73.3092 110.79 77.2781 113.677 91.421C114.687 96.3657 113.994 100.252 111.619 102.974C109.579 105.307 106.853 106.088 104.924 106.335C104.425 106.399 103.923 106.431 103.42 106.433ZM103.197 101.773C102.813 101.773 102.444 101.921 102.168 102.188C101.891 102.454 101.729 102.817 101.715 103.2C101.701 103.584 101.837 103.958 102.093 104.243C102.349 104.529 102.706 104.704 103.089 104.731C103.098 104.731 103.756 104.774 104.711 104.654C106.348 104.446 108.655 103.792 110.344 101.859C112.354 99.5573 112.917 96.1596 112.018 91.7595C110.685 85.227 109.887 80.1705 110.33 76.725C110.78 73.2127 112.483 71.2864 115.851 70.4731C119.965 69.4791 122.637 71.7904 123.863 73.2563C126.529 76.4428 127.212 81.1112 125.559 84.8724C125.481 85.0504 125.438 85.2422 125.434 85.4366C125.43 85.6311 125.464 85.8245 125.535 86.0057C125.605 86.187 125.711 86.3526 125.845 86.4931C125.98 86.6336 126.141 86.7462 126.319 86.8245C126.678 86.9826 127.086 86.9914 127.452 86.849C127.818 86.7065 128.113 86.4245 128.271 86.0649C130.366 81.2966 129.508 75.3857 126.135 71.3558C123.297 67.9649 119.295 66.5943 115.156 67.5942C110.462 68.7283 107.913 71.7185 107.364 76.7348C106.898 80.9665 107.883 86.312 109.116 92.3519C109.597 94.7077 109.818 97.9268 108.136 99.8844C106.404 101.899 103.413 101.784 103.286 101.777C103.256 101.774 103.226 101.773 103.197 101.773Z" fill="#363636"/>
<path d="M108.942 102.448C108.495 105.569 106.087 108.584 106.087 108.584H54.6953C52.1901 106.773 49.905 103.874 49.7019 101.077V101.075C49.6067 99.7755 49.9621 98.4975 50.9545 97.3613C54.086 93.7792 58.6181 97.6787 58.6181 97.6787C52.9476 86.8434 63.4465 73.3759 63.4465 73.3759C63.4489 73.3733 63.451 73.3704 63.4529 73.3674C69.8851 65.9852 91.6552 63.078 94.2746 66.3385C94.4157 66.509 94.5033 66.7173 94.5264 66.9373C94.7676 69.396 96.1239 72.811 97.1987 75.204C97.9054 76.7761 98.828 78.2339 99.9028 79.5775C102.4 82.7005 103.739 86.0668 104.446 88.974C104.918 90.8995 105.173 92.8718 105.207 94.854C105.226 95.9585 105.159 96.6123 105.159 96.6123C108.557 97.8712 109.263 100.186 108.942 102.448Z" fill="white"/>
<path d="M56.6659 106.052C57.8179 106.052 58.7517 105.118 58.7517 103.966C58.7517 102.814 57.8179 101.88 56.6659 101.88C55.5139 101.88 54.5801 102.814 54.5801 103.966C54.5801 105.118 55.5139 106.052 56.6659 106.052Z" fill="#FF5253"/>
<path d="M102.826 106.681C103.89 106.24 104.395 105.02 103.955 103.956C103.514 102.891 102.294 102.386 101.229 102.827C100.165 103.268 99.6596 104.488 100.1 105.552C100.541 106.616 101.761 107.122 102.826 106.681Z" fill="#FF5253"/>
<path d="M52.8958 103.666C53.4749 103.666 53.9444 103.197 53.9444 102.617C53.9444 102.038 53.4749 101.569 52.8958 101.569C52.3167 101.569 51.8472 102.038 51.8472 102.617C51.8472 103.197 52.3167 103.666 52.8958 103.666Z" fill="#FF5253"/>
<path d="M54.1546 101.229C54.7337 101.229 55.2032 100.759 55.2032 100.18C55.2032 99.6008 54.7337 99.1313 54.1546 99.1313C53.5754 99.1313 53.106 99.6008 53.106 100.18C53.106 100.759 53.5754 101.229 54.1546 101.229Z" fill="#FF5253"/>
<path d="M56.9949 101.15C57.574 101.15 58.0435 100.68 58.0435 100.101C58.0435 99.5222 57.574 99.0527 56.9949 99.0527C56.4158 99.0527 55.9463 99.5222 55.9463 100.101C55.9463 100.68 56.4158 101.15 56.9949 101.15Z" fill="#FF5253"/>
<path d="M101.902 101.48C102.504 101.231 102.791 100.54 102.541 99.9372C102.291 99.3346 101.601 99.0484 100.998 99.298C100.395 99.5476 100.109 100.239 100.359 100.841C100.608 101.444 101.299 101.73 101.902 101.48Z" fill="#FF5253"/>
<path d="M106.902 103.76C107.052 103.125 106.659 102.489 106.024 102.34C105.389 102.19 104.753 102.583 104.603 103.218C104.453 103.853 104.847 104.489 105.482 104.638C106.116 104.788 106.752 104.395 106.902 103.76Z" fill="#FF5253"/>
<path d="M105.79 100.655C105.94 100.02 105.547 99.3839 104.912 99.234C104.277 99.0842 103.641 99.4774 103.492 100.112C103.342 100.747 103.735 101.383 104.37 101.533C105.005 101.683 105.641 101.29 105.79 100.655Z" fill="#FF5253"/>
<path d="M104.443 88.9763C103.441 89.2278 102.412 89.3543 101.379 89.3529C94.4179 89.3529 88.7749 83.7099 88.7749 76.7487C88.7731 74.6972 89.2731 72.6764 90.2312 70.8623C91.1893 69.0482 92.5765 67.496 94.2719 66.3408C94.413 66.5113 94.5006 66.7196 94.5237 66.9396C94.7649 69.3982 96.1212 72.8132 97.196 75.2063C97.9027 76.7784 98.8252 78.2362 99.9001 79.5798C102.397 82.7028 103.736 86.0691 104.443 88.9763Z" fill="#FFBC1F"/>
<g opacity="0.3">
<path d="M105.156 96.6142C100.872 90.8337 94.5242 93.4193 94.5242 93.4193C95.2347 91.8629 96.7878 90.9996 98.1517 90.5265C99.8152 89.9489 100.737 88.136 100.13 86.4831C99.2739 84.1522 97.5571 82.2852 96.2478 80.6327C95.2957 79.4313 94.4574 77.9244 93.8565 76.7171C93.5799 76.1665 93.1035 75.7422 92.5246 75.531C91.9458 75.3199 91.3081 75.3377 90.7419 75.5809C71.7914 83.6863 63.4443 73.3778 63.4443 73.3778C63.4467 73.3752 63.4488 73.3724 63.4507 73.3694C69.8829 65.9871 91.653 63.08 94.2724 66.3405C94.4135 66.5109 94.5011 66.7193 94.5242 66.9393C94.7654 69.3979 96.1217 72.8129 97.1966 75.206C97.9033 76.778 98.8258 78.2359 99.9006 79.5794C102.397 82.7025 103.737 86.0688 104.443 88.976C105.499 93.3008 105.156 96.6142 105.156 96.6142Z" fill="#363636"/>
</g>
<g opacity="0.3">
<path d="M108.94 102.448C108.494 105.569 106.086 108.584 106.086 108.584H54.6936C52.1884 106.773 49.9033 103.874 49.7002 101.077L52.7073 103.904C54.172 105.282 56.1071 106.049 58.1179 106.049H59.1818C60.5939 106.049 61.9685 105.594 63.1021 104.752V104.752C63.1021 104.752 63.8744 105.613 65.0973 104.752C65.0973 104.752 66.3668 105.41 68.0891 103.516C68.0891 103.516 70.5986 102.746 69.6845 100.099C68.7705 97.4523 66.4578 89.3359 67.9876 86.0034C67.9876 86.0034 69.5174 99.145 73.1905 99.2064C73.1905 99.2064 76.999 100.218 83.1181 86.0098C83.0398 86.2615 80.4817 94.3632 77.236 99.674C77.236 99.674 76.5907 102.767 79.3794 102.395C79.3794 102.395 79.8555 104.902 83.5963 104.09C83.5963 104.09 88.084 107.473 90.3967 94.0966C90.3967 94.0966 91.3467 90.8995 90.805 86.799C90.805 86.799 92.306 93.9849 90.7784 101.33C90.3493 103.394 91.794 105.384 93.8895 105.62C95.5856 105.811 97.9842 105.973 101.372 106.037C103.742 106.082 106.058 105.237 107.793 103.621C108.195 103.249 108.578 102.858 108.94 102.448V102.448Z" fill="#363636"/>
</g>
<g opacity="0.3">
<path d="M105.155 96.6149C105.155 96.6149 97.9699 94.8926 96.5649 104.391C96.5649 104.391 95.1621 94.4631 105.204 94.8566C105.223 95.9611 105.155 96.6149 105.155 96.6149Z" fill="#363636"/>
</g>
<g opacity="0.3">
<path d="M77.6353 99.0056C77.6353 99.0056 78.2755 100.543 79.4486 100.407C79.6832 100.382 79.9147 100.333 80.1392 100.261C80.2128 100.237 80.2909 100.231 80.3674 100.242C80.444 100.253 80.517 100.281 80.5811 100.324C80.6451 100.368 80.6985 100.425 80.7372 100.492C80.7759 100.559 80.7988 100.634 80.8044 100.711C80.8552 101.312 81.0613 102.01 81.7256 102.141C82.6329 102.32 83.6363 101.785 84.2736 101.268C84.5617 101.034 84.9976 101.16 85.0975 101.518L85.1026 101.537C85.1162 101.585 85.1433 101.628 85.1807 101.662C85.2181 101.695 85.2643 101.717 85.3138 101.726C85.3634 101.734 85.4142 101.728 85.4604 101.708C85.5066 101.689 85.5463 101.656 85.5748 101.615C86.6421 100.069 89.4921 95.2956 90.8048 86.8013C90.8048 86.8013 91.922 96.5588 86.3535 103.966C86.3535 103.966 85.0243 105.198 83.5961 104.093C83.5961 104.093 80.6521 105.032 79.3792 102.399C79.3804 102.399 76.3657 102.257 77.6353 99.0056Z" fill="#363636"/>
</g>
<g opacity="0.3">
<path d="M60.8481 102.549C60.8481 102.549 63.074 103.994 63.6411 102.829C63.7621 102.581 64.0918 102.514 64.3156 102.676C64.7011 102.954 65.2466 103.177 65.7967 102.839C66.3088 102.523 66.4738 102.006 66.5115 101.569C66.5445 101.182 66.7679 100.822 67.1318 100.686C67.5338 100.535 67.9147 100.16 67.6219 99.2342C67.0891 97.5508 65.7108 88.93 67.9896 86.0059C67.9896 86.0059 66.6393 88.9507 68.227 94.8349C68.227 94.8349 71.7173 102.827 68.0912 103.519C68.0912 103.519 67.208 105.797 64.7257 104.709C64.724 104.709 62.5146 106.273 60.8481 102.549Z" fill="#363636"/>
</g>
<path d="M106.086 109.432H54.6947C54.5169 109.431 54.3437 109.375 54.1996 109.271C51.8721 107.589 49.2485 104.642 48.8816 101.415C48.6857 99.6994 49.182 98.1062 50.317 96.807C52.2966 94.5397 54.8513 94.7521 56.8457 95.6048C55.5339 91.4154 55.96 86.4753 58.1216 81.1476C60.0588 76.3725 62.6673 72.9989 62.7764 72.8576L62.8052 72.8229C65.4691 69.7579 71.0148 67.0783 78.0259 65.4724C84.1111 64.0759 90.1785 63.7729 93.123 64.7107C94.858 65.2646 95.3015 66.1829 95.3658 66.8557C95.5939 69.19 96.907 72.4958 97.9679 74.8584C98.6132 76.2946 99.4854 77.7046 100.56 79.0478C106.042 85.9032 106.143 93.7708 106.041 96.0572C107.965 96.9065 109.176 98.187 109.644 99.8708C110.787 103.981 106.912 108.902 106.747 109.11C106.668 109.209 106.567 109.29 106.453 109.346C106.339 109.402 106.213 109.431 106.086 109.432V109.432ZM54.9715 107.739H105.662C106.435 106.665 108.786 103.089 108.014 100.325C107.647 99.0135 106.618 98.0575 104.863 97.4092C104.686 97.3444 104.537 97.2226 104.437 97.063C104.337 96.9035 104.294 96.7153 104.313 96.5282C104.322 96.4397 105.148 87.5011 99.2374 80.1091C98.0737 78.6534 97.1266 77.1211 96.4233 75.5545C95.3099 73.0768 93.9308 69.5878 93.6803 67.0237C93.6638 66.8545 93.3726 66.5705 92.6059 66.3259C87.3585 64.6514 69.6585 67.5498 64.0967 73.9151C63.6888 74.4504 54.104 87.234 59.3636 97.2895C59.4551 97.4639 59.4829 97.6648 59.4422 97.8576C59.4015 98.0504 59.2948 98.2229 59.1405 98.3454C58.9862 98.468 58.7941 98.5328 58.5971 98.5289C58.4001 98.5249 58.2107 98.4523 58.0615 98.3237C57.9032 98.1883 54.1222 95.02 51.5869 97.9208C50.7622 98.8653 50.416 99.9766 50.5586 101.222C50.8066 103.367 52.5276 105.901 54.9715 107.739V107.739Z" fill="#363636"/>
<path d="M59.4139 97.4015C59.6979 98.1907 60.0199 98.9994 60.3622 99.7776C60.6972 100.552 61.0726 101.309 61.487 102.044C61.5911 102.223 61.6935 102.403 61.8057 102.568L61.9703 102.822L62.1434 103.057C62.2564 103.222 62.3795 103.347 62.4971 103.484C62.523 103.516 62.5529 103.545 62.586 103.571L62.6732 103.646L62.7578 103.725C62.7887 103.751 62.8315 103.776 62.8678 103.802C63.1641 104.013 63.4789 104.17 63.7311 104.223C63.8303 104.246 63.9332 104.25 64.0337 104.233C64.0656 104.227 64.0966 104.216 64.1255 104.201C64.1353 104.197 64.1446 104.191 64.1534 104.185C64.1568 104.182 64.1606 104.18 64.1581 104.181C64.1556 104.182 64.1606 104.181 64.1543 104.186C64.143 104.197 64.1325 104.209 64.123 104.222L65.2469 104.048C65.2325 104.038 65.241 104.044 65.2495 104.048C65.2574 104.053 65.2658 104.057 65.2744 104.061C65.2947 104.072 65.3157 104.082 65.3371 104.09C65.3794 104.111 65.4289 104.126 65.4759 104.143C65.5687 104.171 65.6643 104.189 65.7611 104.196C65.9439 104.209 66.127 104.177 66.2947 104.103C66.4847 104.006 66.6565 103.877 66.8025 103.722C66.8833 103.634 66.9587 103.53 67.0391 103.435L67.254 103.1L68.185 102.697C68.16 102.691 68.185 102.697 68.1892 102.697L68.2244 102.7C68.2489 102.7 68.276 102.703 68.3018 102.702C68.3522 102.702 68.4025 102.697 68.452 102.687C68.5276 102.674 68.5997 102.645 68.6636 102.603C68.7216 102.563 68.7694 102.51 68.8033 102.448C68.8567 102.354 68.8969 102.254 68.9226 102.149C68.9844 101.895 68.9958 101.571 68.9776 101.233C68.9554 100.879 68.9067 100.526 68.832 100.179C68.7995 100.001 68.7504 99.8187 68.7123 99.638L68.5684 99.0878C68.466 98.6985 68.3568 98.3113 68.2603 97.9203C68.072 97.137 67.896 96.3525 67.7466 95.562C67.4559 93.9801 67.2206 92.3856 67.1542 90.7708C67.136 90.368 67.1393 89.9613 67.1406 89.558C67.1622 89.1518 67.1724 88.7476 67.2253 88.3422C67.2434 88.1408 67.276 87.9385 67.3099 87.7375C67.326 87.6368 67.3435 87.5365 67.3624 87.4366L67.4368 87.1404C67.4631 87.0414 67.4825 86.9424 67.5147 86.8442L67.6201 86.5548C67.6768 86.3609 67.7982 86.1845 67.8858 86.0093C67.7284 86.7964 67.7885 87.575 67.8554 88.3503C67.9222 89.1255 68.0466 89.897 68.1816 90.6659C68.4436 92.2033 68.7694 93.7334 69.1723 95.2433C69.3623 96.0008 69.5798 96.7515 69.807 97.498C69.9145 97.8729 70.0377 98.2428 70.1515 98.6152C70.2721 99.0019 70.3995 99.4078 70.49 99.8225C70.5908 100.248 70.6597 100.681 70.6961 101.117C70.7419 101.601 70.7114 102.089 70.606 102.564C70.5383 102.845 70.4284 103.113 70.2801 103.361C70.1108 103.637 69.8819 103.872 69.6102 104.048C69.3385 104.225 69.0309 104.338 68.7097 104.38C68.5633 104.402 68.4154 104.41 68.2675 104.405C68.1947 104.405 68.1224 104.397 68.0487 104.388L67.9362 104.373C67.8939 104.366 67.8681 104.362 67.7944 104.345L68.7254 103.943L68.4169 104.424C68.2929 104.579 68.1749 104.736 68.0361 104.885C67.75 105.181 67.4115 105.456 66.9938 105.647C66.569 105.837 66.1038 105.919 65.6396 105.886C65.4138 105.869 65.1906 105.827 64.9744 105.759C64.8675 105.725 64.7624 105.686 64.6596 105.641C64.6079 105.62 64.555 105.593 64.503 105.567C64.4776 105.555 64.4497 105.54 64.4209 105.525C64.3921 105.51 64.3671 105.495 64.3189 105.464L65.4424 105.29C65.415 105.323 65.3858 105.355 65.3548 105.385C65.3299 105.411 65.3125 105.428 65.2909 105.446C65.2516 105.481 65.2105 105.514 65.1678 105.545C65.089 105.604 65.0057 105.656 64.9185 105.702C64.7534 105.788 64.5771 105.852 64.3947 105.89C64.0649 105.957 63.7248 105.955 63.396 105.884C62.7904 105.752 62.3177 105.481 61.903 105.193C61.8505 105.155 61.7989 105.124 61.7456 105.081L61.5844 104.942C61.4828 104.849 61.3592 104.755 61.2801 104.659C61.1108 104.468 60.9306 104.275 60.7956 104.079L60.5793 103.785L60.3868 103.489C60.2539 103.292 60.1401 103.092 60.0241 102.892C59.5785 102.104 59.1751 101.292 58.8155 100.461C58.4542 99.6375 58.1279 98.8208 57.8198 97.9643L59.4139 97.4015Z" fill="#363636"/>
<path d="M64.4376 104.89C64.308 104.661 64.194 104.423 64.0966 104.178C63.9992 103.934 63.9116 103.684 63.8367 103.429C63.7574 103.172 63.6991 102.908 63.6624 102.641C63.629 102.373 63.6201 102.077 63.7089 101.807C63.8596 102.042 64.0246 102.23 64.1812 102.43C64.3378 102.63 64.488 102.827 64.642 103.025L65.0961 103.621C65.2421 103.821 65.3923 104.025 65.5193 104.226L64.4376 104.89Z" fill="#363636"/>
<path d="M67.4122 103.785C67.2535 103.256 67.1088 102.724 66.981 102.183C66.9145 101.914 66.851 101.644 66.7969 101.37C66.7392 101.095 66.6968 100.817 66.6699 100.537C67.0165 100.982 67.3368 101.43 67.6466 101.886C67.9627 102.337 68.2682 102.794 68.5649 103.252L67.4122 103.785Z" fill="#363636"/>
<path d="M105.009 97.4482C104.987 97.4444 104.919 97.4343 104.868 97.4292C104.817 97.4241 104.755 97.4173 104.699 97.4131C104.583 97.4051 104.464 97.3979 104.345 97.3936C104.105 97.386 103.865 97.3912 103.625 97.4093C103.145 97.4456 102.668 97.5295 102.204 97.6598C101.266 97.9247 100.399 98.3971 99.6688 99.0423C99.2985 99.3791 98.9597 99.7489 98.6566 100.147C98.5127 100.356 98.3565 100.559 98.2296 100.782C98.1632 100.892 98.0895 100.998 98.0265 101.111L97.8407 101.452C97.3422 102.368 96.952 103.363 96.5665 104.39C96.5433 103.279 96.7152 102.173 97.0743 101.121C97.4418 100.03 98.0252 99.0231 98.7899 98.1617C99.5943 97.2785 100.601 96.6034 101.723 96.1944C102.285 95.9886 102.868 95.8494 103.462 95.7797C103.759 95.7438 104.059 95.7239 104.358 95.72C104.509 95.7179 104.66 95.72 104.813 95.7301C104.889 95.7344 104.967 95.7407 105.045 95.7483C105.123 95.756 105.193 95.7632 105.305 95.7809L105.009 97.4482Z" fill="#363636"/>
<path d="M103.661 96.9536C103.628 96.896 103.563 96.7902 103.508 96.7069C103.452 96.6235 103.391 96.5283 103.329 96.4398C103.206 96.2629 103.075 96.0878 102.94 95.9172C102.668 95.5765 102.374 95.255 102.058 94.9549C101.434 94.3538 100.706 93.8709 99.9092 93.5297C99.1089 93.1979 98.2317 93.0409 97.321 93.0371C96.4104 93.0333 95.473 93.1916 94.5234 93.418C95.3355 92.8373 96.2568 92.4271 97.2317 92.2123C98.2533 91.9937 99.3123 92.0219 100.321 92.2944C101.342 92.5691 102.296 93.0854 103.11 93.7472C103.516 94.0787 103.892 94.4455 104.234 94.8432C104.403 95.0421 104.567 95.2461 104.719 95.4619C104.795 95.5694 104.87 95.6777 104.941 95.7915C105.011 95.9054 105.076 96.0091 105.158 96.1618L103.661 96.9536Z" fill="#363636"/>
<path d="M83.1215 86.0063C82.9705 87.1988 82.6814 88.3456 82.345 89.4764C82.0086 90.6071 81.5901 91.7052 81.1864 92.8122C80.7827 93.9192 80.3438 95.0127 79.8843 96.1054C79.7725 96.3796 79.6532 96.6508 79.5296 96.9212C79.4061 97.1916 79.2906 97.4637 79.1598 97.7329L78.7734 98.5403L78.3587 99.3443L78.401 99.2597C78.3803 99.313 78.3456 99.4116 78.3202 99.492C78.2948 99.5724 78.2686 99.6613 78.2457 99.7497C78.2013 99.9189 78.1668 100.091 78.1425 100.264C78.0917 100.598 78.0964 100.921 78.1624 101.131C78.2364 101.342 78.2957 101.412 78.4688 101.503C78.6533 101.582 78.9571 101.637 79.2973 101.619L80.1771 102.287C80.1729 102.268 80.1771 102.285 80.1805 102.295C80.1839 102.308 80.1881 102.32 80.1932 102.332C80.2028 102.361 80.2142 102.389 80.2275 102.417C80.2534 102.476 80.2829 102.535 80.3159 102.591C80.3501 102.647 80.388 102.701 80.4293 102.752L80.4902 102.829L80.5601 102.896C80.7554 103.081 80.9938 103.214 81.2536 103.283C81.5236 103.373 81.8546 103.371 82.1821 103.367C82.3514 103.345 82.5236 103.329 82.6958 103.304L83.2214 103.187L83.8985 103.292C83.8887 103.286 83.9082 103.296 83.9209 103.303C83.9336 103.309 83.9501 103.317 83.967 103.325C83.9988 103.341 84.0335 103.356 84.0703 103.37C84.1423 103.4 84.2161 103.425 84.2912 103.446C84.4371 103.486 84.5869 103.51 84.738 103.518C85.0221 103.535 85.3051 103.47 85.5531 103.33C85.807 103.188 86.0482 102.964 86.2687 102.692C86.3228 102.623 86.3698 102.542 86.4227 102.469C86.4743 102.389 86.5272 102.329 86.5793 102.234C86.6821 102.053 86.7909 101.876 86.8903 101.69C87.2961 100.951 87.6613 100.172 88.0071 99.3875L88.261 98.795L88.4971 98.1945C88.6638 97.7976 88.8005 97.3905 88.9516 96.9856C89.5186 95.3597 89.9778 93.6916 90.2634 91.9921C90.296 91.7805 90.3379 91.5689 90.3692 91.3544L90.4538 90.7146C90.5258 90.2876 90.5537 89.8589 90.6104 89.4277L90.6498 89.104L90.6697 88.7794L90.7259 88.126C90.7632 87.6885 90.7611 87.25 90.8106 86.7977C90.9587 87.2224 91.0821 87.6553 91.1804 88.0943C91.2524 88.5352 91.3518 88.9829 91.3742 89.4311C91.4094 89.8801 91.4458 90.3329 91.428 90.7827L91.4123 91.4598C91.4022 91.6849 91.3772 91.9083 91.3573 92.1326C91.1881 93.9265 90.8468 95.7 90.3383 97.4286C90.0844 98.2915 89.8077 99.1497 89.4734 99.988C89.139 100.826 88.7963 101.662 88.3693 102.475C88.2656 102.68 88.1497 102.882 88.0401 103.086C87.9889 103.185 87.9063 103.301 87.8399 103.407C87.7735 103.513 87.7028 103.624 87.622 103.728C87.2953 104.145 86.8954 104.544 86.3804 104.835C85.8552 105.13 85.2566 105.268 84.6555 105.232C84.3667 105.217 84.0809 105.167 83.8045 105.081C83.6686 105.04 83.535 104.99 83.4046 104.934C83.3395 104.906 83.2739 104.876 83.2083 104.841C83.1753 104.825 83.1431 104.809 83.1076 104.788C83.072 104.767 83.0428 104.752 82.9865 104.717L83.6636 104.821L82.9937 104.969C82.7635 105.005 82.5282 105.03 82.293 105.054C81.8088 105.064 81.3099 105.065 80.7962 104.907C80.2654 104.761 79.7795 104.485 79.3828 104.103L79.2355 103.955L79.1039 103.794C79.0177 103.686 78.9386 103.573 78.867 103.455C78.7965 103.336 78.7333 103.212 78.6778 103.085C78.6484 103.02 78.6222 102.953 78.5995 102.885C78.5872 102.852 78.575 102.817 78.564 102.778C78.553 102.738 78.542 102.707 78.5263 102.637L79.4061 103.306C78.9152 103.338 78.363 103.328 77.7735 103.083C77.4624 102.948 77.1853 102.745 76.9623 102.49C76.7467 102.238 76.5879 101.942 76.4968 101.622C76.3275 101.026 76.358 100.492 76.4312 100.003C76.4705 99.7631 76.5236 99.5258 76.5903 99.2923C76.6237 99.1776 76.6584 99.0637 76.6978 98.9503C76.7371 98.8369 76.7735 98.7341 76.8323 98.594V98.5911C76.844 98.5639 76.857 98.5374 76.8713 98.5115C77.4303 97.5251 77.9529 96.4921 78.462 95.4511C78.9787 94.4131 79.4594 93.3518 79.9549 92.296C80.4505 91.2401 80.905 90.1636 81.4157 89.1095C81.9265 88.0553 82.469 87.0143 83.1215 86.0063Z" fill="#363636"/>
<path d="M78.7837 102.172C78.9483 101.942 79.1138 101.714 79.286 101.489C79.4582 101.264 79.633 101.041 79.8073 100.818C79.9817 100.594 80.1649 100.375 80.3469 100.156C80.5289 99.936 80.7197 99.7215 80.922 99.5171L80.6842 100.338L80.4374 101.151C80.3528 101.419 80.2707 101.691 80.181 101.958C80.0913 102.224 80.0033 102.492 79.911 102.756L78.7837 102.172Z" fill="#363636"/>
<path d="M82.8896 103.688L84.0656 102.122C84.2582 101.858 84.4613 101.599 84.6513 101.332C84.8513 101.071 85.037 100.798 85.2074 100.516C85.1849 100.855 85.0961 101.182 85.0114 101.506C84.9166 101.827 84.8202 102.148 84.7089 102.462C84.5976 102.776 84.4884 103.092 84.3665 103.4C84.2446 103.709 84.1219 104.016 83.989 104.325L82.8896 103.688Z" fill="#363636"/>
<path d="M77.807 78.1115C69.8873 78.1115 62.811 76.5999 57.3445 73.7393C55.9653 73.0222 54.6527 72.1838 53.4221 71.2341H53.3527V71.1787C52.7877 70.7376 52.2452 70.2684 51.7273 69.7729C50.1865 68.3011 48.9344 66.6486 48.0034 64.8641C46.6552 62.2679 45.9722 59.3684 45.9722 56.2458C45.9722 53.4156 46.5464 50.582 47.6784 47.8246C47.9429 45.5306 48.168 43.6776 48.3868 41.998C49.1777 35.9703 50.2987 28.9148 52.6185 22.2883C52.8841 21.5198 53.3253 20.8239 53.907 20.2558C54.4888 19.6877 55.195 19.2632 55.9696 19.0159C56.7339 18.7659 57.546 18.6977 58.3414 18.8167C59.1367 18.9357 59.8932 19.2386 60.5509 19.7015C64.3789 22.3789 68.3495 26.3199 70.6647 29.7421L70.7129 29.8136C73.1993 29.2765 75.736 29.007 78.2797 29.0096C80.592 29.0088 82.8989 29.2356 85.1668 29.6866C87.4892 26.2788 91.4365 22.3658 95.243 19.7044C95.901 19.2414 96.6581 18.9384 97.4538 18.8195C98.2496 18.7007 99.0622 18.7692 99.8268 19.0197C100.601 19.2668 101.307 19.6912 101.888 20.2592C102.47 20.8272 102.91 21.523 103.175 22.2913C104.022 24.7144 104.744 27.2712 105.38 30.1073C106.694 35.947 107.463 42.1588 108.137 48.0227L108.151 48.1386C108.414 48.8458 108.64 49.5495 108.824 50.2321C109.363 52.1922 109.637 54.2158 109.639 56.2487C109.639 61.6895 107.629 66.3118 103.665 69.9874C103.241 70.3818 102.784 70.7729 102.265 71.1825V71.2371H102.194C100.323 72.6945 98.1095 73.9521 95.6141 74.9754C91.5301 76.6469 86.8041 77.6638 81.5673 77.9977C80.3587 78.0722 79.0943 78.1115 77.807 78.1115ZM53.5626 71.075C54.7806 72.014 56.0796 72.8429 57.4444 73.5518C62.8809 76.3964 69.9229 77.8999 77.8087 77.8999C79.0913 77.8999 80.3515 77.8606 81.5542 77.7831C86.7702 77.4505 91.4738 76.4391 95.5362 74.7786C98.0092 73.763 100.202 72.5193 102.056 71.0771L102.098 71.0454C102.629 70.6281 103.096 70.2308 103.524 69.8304C107.445 66.1958 109.432 61.6256 109.432 56.2466C109.43 54.2326 109.159 52.2278 108.625 50.2858C108.426 49.5516 108.179 48.7937 107.89 48.0324L107.754 47.6736L107.902 47.7916C107.235 42.0077 106.471 35.8954 105.177 30.1513C104.543 27.3232 103.823 24.7744 102.98 22.3594C102.726 21.6217 102.302 20.9537 101.744 20.4084C101.186 19.8631 100.508 19.4557 99.7641 19.2186C99.0306 18.9784 98.251 18.9127 97.4876 19.0268C96.7241 19.1409 95.9978 19.4316 95.3665 19.8758C91.558 22.5418 87.6085 26.4595 85.3048 29.8627L85.2654 29.9211L85.1964 29.9071C82.9201 29.4498 80.604 29.2201 78.2822 29.2211C75.6098 29.2194 72.9457 29.5193 70.3405 30.1153L69.8856 30.2148L70.4358 29.778C68.1244 26.3927 64.2071 22.516 60.429 19.8733C59.7981 19.4293 59.0722 19.1387 58.3093 19.0245C57.5463 18.9104 56.7672 18.9758 56.0339 19.2157C55.2905 19.4531 54.6127 19.8606 54.0544 20.4059C53.4961 20.9512 53.0727 21.6192 52.8178 22.3569C50.506 28.9647 49.3872 36.0067 48.5979 42.0238C48.3792 43.7068 48.1536 45.5615 47.8883 47.8636L47.8811 47.8915C46.7559 50.6277 46.185 53.4384 46.185 56.2458C46.185 59.3349 46.8621 62.2011 48.1934 64.7663C49.1121 66.5327 50.3516 68.1665 51.875 69.6222C52.4005 70.1242 52.9513 70.5989 53.5254 71.0445L53.5626 71.075Z" fill="#363636"/>
<path d="M97.0465 73.9953C97.0465 73.9953 96.4875 74.3275 95.5751 74.8742C91.4852 76.5483 86.7114 77.5605 81.5614 77.8885C80.3305 77.9681 79.0797 78.0071 77.8091 78.0057C70.035 78.0057 62.9134 76.5327 57.3957 73.647C56.0838 69.643 59.5962 66.7916 65.2929 64.972C67.4443 64.2839 69.1286 62.5663 69.6694 60.373C71.9041 51.3171 82.6646 51.3171 84.8998 60.373C85.4406 62.5663 87.1244 64.2839 89.2758 64.972C95.1355 66.8437 98.6867 69.8059 97.0465 73.9953Z" fill="white"/>
<g opacity="0.6">
<path d="M95.0889 19.7872C94.7503 20.0251 94.4118 20.2714 94.0732 20.524C96.765 19.2316 100.089 20.5435 101.118 23.4837C103.873 31.3585 105.03 40.0961 106.074 49.191L106.026 49.1541C107.033 51.7888 107.575 54.5678 107.575 57.406C107.575 63.0291 105.375 67.5994 101.634 71.0673C101.179 71.4921 100.701 71.8989 100.2 72.2877H100.198C99.9951 72.4468 99.7882 72.6038 99.5766 72.7561C100.396 72.2591 101.185 71.7148 101.941 71.1261C101.942 71.1264 101.942 71.1265 101.943 71.1265C101.943 71.1265 101.943 71.1264 101.944 71.1261C102.443 70.7359 102.922 70.3305 103.378 69.9052C107.118 66.4378 109.319 61.8675 109.319 56.2444C109.319 53.4066 108.776 50.6276 107.77 47.9925L107.817 48.0298C106.773 38.9345 105.617 30.1973 102.861 22.3225C101.736 19.1119 97.8742 17.8411 95.0889 19.7872Z" fill="white"/>
</g>
<g opacity="0.6">
<path d="M53.6909 20.4042C54.4783 20.0816 55.3343 19.9624 56.1799 20.0576C57.0254 20.1528 57.8335 20.4593 58.5295 20.9488C62.0689 23.4231 65.5072 26.7924 67.7919 29.8109C68.0496 30.1468 68.3945 30.4056 68.789 30.5593C69.1835 30.7129 69.6126 30.7556 70.0296 30.6826H70.0436H70.0461C70.1769 30.4406 70.3207 30.1812 70.46 29.9307C70.3402 29.9569 70.2179 29.9831 70.0982 30.0115L70.3618 29.7999C68.1389 26.5178 64.2681 22.5814 60.2729 19.7872C58.1393 18.2964 55.3726 18.6933 53.6909 20.4042Z" fill="white"/>
</g>
<path d="M93.1899 32.583C94.5322 30.1248 96.2694 27.794 97.5203 26.241C98.1851 25.4124 99.5126 25.7154 99.7546 26.7509C100.365 29.3597 101.223 33.7624 101.348 38.3348V38.3369" fill="#FF5253"/>
<path d="M101.346 38.337H101.24C101.12 33.8827 100.31 29.5909 99.6502 26.7751C99.6013 26.5609 99.4926 26.365 99.3368 26.2101C99.181 26.0552 98.9845 25.9477 98.77 25.9C98.5567 25.8488 98.3332 25.86 98.1261 25.9322C97.919 26.0043 97.737 26.1345 97.6016 26.3071C96.3744 27.8305 94.6293 30.1656 93.2815 32.6339L93.0957 32.5324C94.4499 30.0505 96.2048 27.7052 97.437 26.1746C97.5991 25.973 97.8145 25.821 98.0588 25.7359C98.3031 25.6509 98.5664 25.6362 98.8186 25.6935C99.0708 25.7509 99.3019 25.878 99.4854 26.0603C99.6688 26.2427 99.7974 26.4729 99.8563 26.7248C100.517 29.5503 101.331 33.8573 101.452 38.3298L101.346 38.337Z" fill="#363636"/>
<g opacity="0.6">
<path d="M92.0259 33.8702L97.7675 37.7063C98.2672 38.0403 98.8349 38.2592 99.4295 38.347C100.024 38.4349 100.631 38.3894 101.206 38.2141L93.1879 32.5859C94.5302 30.1251 96.2674 27.7943 97.5183 26.2412C97.5224 26.235 97.5277 26.2297 97.5339 26.2256C97.0498 25.6395 96.0909 25.5764 95.5568 26.2412C94.5197 27.5298 92.8756 29.6876 91.579 31.789C91.3691 32.1262 91.2984 32.5317 91.3818 32.9199C91.4652 33.3082 91.6961 33.6489 92.0259 33.8702Z" fill="white"/>
</g>
<g opacity="0.3">
<path d="M97.0366 26.8491C97.0817 26.9391 97.1161 27.0341 97.139 27.1322C97.6468 29.2963 98.3239 32.6986 98.6104 36.406L101.348 38.3369V38.3348C101.223 33.7645 100.365 29.3597 99.7547 26.7509C99.5126 25.7154 98.1851 25.4124 97.5203 26.241C97.3657 26.4328 97.2045 26.6355 97.0366 26.8491Z" fill="#363636"/>
</g>
<path d="M54.0127 38.3369V38.3348C54.1367 33.7645 54.9957 29.3597 55.6059 26.7509C55.8476 25.7154 57.1751 25.4124 57.8399 26.241C59.0908 27.7949 60.8279 30.1248 62.1706 32.583" fill="#FF5253"/>
<path d="M54.1188 38.3376L53.9072 38.3347C54.0287 33.86 54.8424 29.5526 55.503 26.7266C55.5619 26.4747 55.6904 26.2443 55.8739 26.0619C56.0574 25.8795 56.2885 25.7523 56.5408 25.695C56.7932 25.6376 57.0565 25.6523 57.3009 25.7375C57.5452 25.8226 57.7607 25.9748 57.9227 26.1765C59.155 27.7075 60.9086 30.0532 62.2636 32.5342L62.0783 32.6358C60.7305 30.1683 58.9849 27.8336 57.7577 26.309C57.6226 26.1361 57.4405 26.0058 57.2334 25.9336C57.0262 25.8614 56.8026 25.8504 56.5893 25.9019C56.3748 25.9496 56.1783 26.0571 56.0225 26.212C55.8667 26.3669 55.758 26.5628 55.7091 26.777C55.0506 29.5911 54.2398 33.8837 54.1188 38.3376Z" fill="#363636"/>
<g opacity="0.6">
<path d="M54.0119 38.611L54.0297 37.7879C54.204 33.414 55.0191 29.2555 55.6052 26.7512C55.6456 26.5707 55.7246 26.4011 55.8366 26.2539C55.1765 26.0559 54.4025 26.4198 54.2239 27.1849C53.6768 29.5238 52.9303 33.304 52.692 37.3559C52.6806 37.5293 52.7074 37.7031 52.7706 37.8651C52.8338 38.027 52.9319 38.173 53.0578 38.2928C53.1838 38.4125 53.3345 38.5031 53.4994 38.5581C53.6643 38.6131 53.8393 38.6312 54.0119 38.611V38.611Z" fill="white"/>
</g>
<g opacity="0.3">
<path d="M55.3735 27.7728C55.4521 27.8348 55.5231 27.9059 55.5851 27.9844C56.8166 29.5142 58.5211 31.7985 59.8528 34.2156L62.1671 32.583C60.8248 30.1248 59.0877 27.7949 57.8364 26.241C57.1716 25.4124 55.8445 25.7154 55.6025 26.7509C55.5305 27.067 55.4552 27.4068 55.3735 27.7728Z" fill="#363636"/>
</g>
<path d="M73.6943 58.5728C73.6943 59.4492 74.9055 60.1568 76.395 60.153C77.8846 60.1492 79.0906 59.4361 79.0885 58.5597C79.0864 57.6833 77.8787 57.611 76.3891 57.6144C74.8995 57.6177 73.6897 57.6969 73.6943 58.5728Z" fill="#363636"/>
<path d="M70.6058 59.4682C70.8076 60.097 71.0802 60.6814 71.5 61.0517C71.9041 61.4326 72.4182 61.5853 72.9426 61.557C73.4669 61.5286 74.0005 61.3213 74.4406 61.0043C74.6617 60.8465 74.8609 60.6601 75.033 60.45L75.1557 60.2904L75.2899 60.0924C75.4087 59.9222 75.5667 59.7831 75.7507 59.6869C75.9346 59.5908 76.1389 59.5403 76.3465 59.5398C76.5541 59.5393 76.7587 59.5888 76.943 59.6841C77.1274 59.7794 77.2861 59.9177 77.4057 60.0873L77.5407 60.2845L77.6639 60.444C77.8372 60.6528 78.0372 60.8377 78.2589 60.9942C78.7028 61.3086 79.2347 61.5189 79.7607 61.5401C80.2867 61.5612 80.7992 61.4131 81.1995 61.0272C81.6176 60.6544 81.8867 60.0687 82.0848 59.4386L82.0869 59.4322C82.1023 59.3826 82.1348 59.3401 82.1786 59.3121C82.2224 59.2841 82.2746 59.2724 82.3262 59.2792C82.3777 59.286 82.4251 59.3108 82.4602 59.3491C82.4952 59.3875 82.5156 59.437 82.5177 59.4889C82.5477 60.2007 82.4098 60.9772 81.9388 61.6522C81.6927 61.9924 81.3749 62.2744 81.0078 62.4782C80.6336 62.6796 80.221 62.7993 79.7971 62.8295C78.9563 62.8976 78.1374 62.6467 77.4468 62.2176C77.1002 61.9989 76.7867 61.7317 76.5158 61.4241C76.4492 61.3454 76.3844 61.2651 76.3212 61.1833L76.2319 61.0564L76.1896 60.9925C76.1756 60.9717 76.1536 60.9404 76.1663 60.9612C76.1861 60.9923 76.2134 61.0179 76.2457 61.0356C76.2781 61.0534 76.3143 61.0627 76.3512 61.0627C76.3881 61.0627 76.4244 61.0534 76.4567 61.0356C76.489 61.0179 76.5163 60.9923 76.5361 60.9612C76.5484 60.9404 76.5268 60.9722 76.5129 60.9929L76.4705 61.0568L76.3817 61.1838L76.1891 61.4258C75.9184 61.735 75.6049 62.0039 75.2581 62.2243C74.5696 62.6564 73.7521 62.9128 72.9104 62.8477C72.4861 62.8197 72.0727 62.7022 71.6972 62.5028C71.3291 62.3005 71.01 62.0198 70.7624 61.6806C70.2888 61.0073 70.1467 60.2316 70.1742 59.5194C70.176 59.4675 70.1961 59.4179 70.2309 59.3794C70.2657 59.3409 70.313 59.3159 70.3644 59.3088C70.4159 59.3017 70.4682 59.313 70.5121 59.3407C70.556 59.3684 70.5887 59.4107 70.6045 59.4602L70.6058 59.4682Z" fill="#363636"/>
<path d="M90.4278 60.6585C93.2491 60.6516 95.5292 57.7448 95.5205 54.166C95.5117 50.5872 93.2175 47.6916 90.3961 47.6985C87.5748 47.7053 85.2947 50.6121 85.3034 54.191C85.3122 57.7698 87.6064 60.6654 90.4278 60.6585Z" fill="white"/>
<path d="M90.418 61.3209C87.2417 61.3209 84.6514 58.1264 84.6421 54.193C84.6328 50.2596 87.2133 47.0452 90.3947 47.0376H90.4061C93.5829 47.0376 96.1727 50.2317 96.182 54.1651C96.1867 56.044 95.6091 57.8183 94.5562 59.1585C93.4665 60.5478 92.0011 61.3167 90.4294 61.3167L90.418 61.3209ZM90.4066 48.3609H90.3981C87.9462 48.3668 85.9578 50.982 85.9654 54.1901C85.973 57.3981 87.9699 59.9977 90.418 59.9977H90.426C91.5838 59.9947 92.6807 59.4052 93.5152 58.3443C94.3857 57.2344 94.863 55.7516 94.8592 54.1685C94.8512 50.9638 92.8546 48.3604 90.4066 48.3604V48.3609Z" fill="#363636"/>
<path d="M89.589 60.0955C91.8494 60.09 93.6761 57.7171 93.669 54.7954C93.6618 51.8738 91.8236 49.5099 89.5631 49.5154C87.3027 49.5209 85.476 51.8938 85.4831 54.8154C85.4903 57.7371 87.3285 60.101 89.589 60.0955Z" fill="#363636"/>
<path d="M90.5332 54.409C91.0627 54.4077 91.4905 53.7782 91.4886 53.003C91.4867 52.2278 91.0559 51.6004 90.5263 51.6017C89.9967 51.603 89.5689 52.2324 89.5708 53.0077C89.5727 53.7829 90.0036 54.4103 90.5332 54.409Z" fill="white"/>
<path d="M67.7607 54.1919C67.7695 50.6131 65.4894 47.7063 62.668 47.6994C59.8467 47.6925 57.5524 50.5881 57.5437 54.167C57.5349 57.7458 59.815 60.6526 62.6364 60.6595C65.4577 60.6663 67.752 57.7707 67.7607 54.1919Z" fill="white"/>
<path d="M62.6464 61.3207H62.635C61.0637 61.3169 59.5979 60.5497 58.5086 59.1625C57.4553 57.8194 56.8777 56.0454 56.8824 54.1666C56.8921 50.2336 59.4823 47.0391 62.6582 47.0391H62.6701C65.8515 47.0467 68.432 50.2552 68.4227 54.1945C68.4134 58.1338 65.8244 61.3207 62.6464 61.3207ZM58.2056 54.1691C58.2018 55.7518 58.6791 57.2346 59.5496 58.345C60.3837 59.408 61.4805 59.9953 62.6388 59.9983H62.6468C65.0953 59.9983 67.0901 57.3954 67.0999 54.1907C67.1096 50.986 65.119 48.3674 62.6671 48.3615H62.6587C60.2106 48.3615 58.2153 50.9644 58.206 54.1691H58.2056Z" fill="#363636"/>
<path d="M67.5811 54.8159C67.5882 51.8943 65.7615 49.5213 63.5011 49.5158C61.2406 49.5103 59.4024 51.8743 59.3953 54.7959C59.3881 57.7175 61.2148 60.0904 63.4752 60.0959C65.7357 60.1015 67.5739 57.7375 67.5811 54.8159Z" fill="#363636"/>
<path d="M63.493 53.0087C63.4949 52.2335 63.0671 51.604 62.5375 51.6027C62.008 51.6014 61.5771 52.2288 61.5752 53.0041C61.5733 53.7793 62.0011 54.4088 62.5307 54.4101C63.0603 54.4114 63.4911 53.784 63.493 53.0087Z" fill="white"/>
<path d="M79.7989 62.2046C79.7989 63.122 79.5284 63.855 79.0926 64.4081C77.785 66.0711 74.9929 66.0711 73.6853 64.4081C73.2494 63.8579 72.979 63.122 72.979 62.2046C74.3018 61.9389 75.4613 61.4526 76.3898 60.6592C77.3512 61.5212 78.4472 62.1195 79.7989 62.2046Z" fill="#363636"/>
<path d="M79.0933 64.4077C77.7857 66.0708 74.9936 66.0708 73.686 64.4077C74.9915 62.7404 77.7878 62.7404 79.0933 64.4077Z" fill="#F42C4F"/>
<path d="M76.3898 66.4173C75.3077 66.4173 74.2942 66.0416 73.5355 65.3594C72.9341 64.8182 72.2173 63.8322 72.2173 62.2051H73.7428C73.7428 64.0607 75.0724 64.8914 76.3898 64.8914C77.7071 64.8914 79.0367 64.0607 79.0367 62.2051H80.5601C80.5622 64.9705 78.4633 66.4173 76.3898 66.4173Z" fill="#363636"/>
<path d="M101.348 39.1001C101.161 39.0999 100.98 39.0306 100.84 38.9054C98.2792 36.6135 95.5853 34.7135 92.8343 33.2573C92.7449 33.2101 92.6659 33.1457 92.6017 33.0677C92.5375 32.9896 92.4895 32.8996 92.4604 32.8029C92.4314 32.7061 92.4218 32.6045 92.4324 32.504C92.443 32.4036 92.4734 32.3062 92.522 32.2176C93.8994 29.6921 95.678 27.3134 96.9281 25.7629C97.1675 25.4654 97.4858 25.2411 97.8465 25.1158C98.2073 24.9904 98.5961 24.969 98.9684 25.054C99.3408 25.139 99.6818 25.3269 99.9524 25.5964C100.223 25.8659 100.413 26.206 100.499 26.578C101.167 29.4327 101.989 33.7867 102.112 38.3147C102.112 38.3218 102.112 38.3307 102.112 38.3375C102.112 38.5395 102.032 38.7333 101.889 38.8761C101.746 39.019 101.552 39.0992 101.35 39.0992L101.348 39.1001ZM94.2346 32.2828C96.375 33.4744 98.4756 34.9225 100.503 36.6033C100.255 32.8549 99.5771 29.3413 99.0118 26.9245C98.9901 26.8312 98.9427 26.7457 98.8748 26.678C98.807 26.6103 98.7214 26.563 98.628 26.5415C98.5346 26.52 98.437 26.5252 98.3464 26.5565C98.2558 26.5878 98.1758 26.6439 98.1155 26.7185C97.0165 28.0836 95.4969 30.106 94.2346 32.2828Z" fill="#363636"/>
<path d="M77.591 78.8777C68.4264 78.8777 60.5063 76.9197 54.6872 73.2149C48.3435 69.1757 44.9902 63.3071 44.9902 56.2456C44.9902 53.3478 45.5696 50.4516 46.7125 47.6345C47.7485 38.637 48.9215 29.9133 51.6776 22.036C51.9809 21.1605 52.4828 20.3671 53.144 19.7181C53.8052 19.069 54.6078 18.5819 55.4887 18.295C56.3697 18.008 57.3052 17.929 58.2218 18.0641C59.1384 18.1993 60.0113 18.5448 60.772 19.0738C64.5383 21.7067 68.4463 25.5504 70.8435 28.9616C75.3795 28.048 80.1063 28.0052 84.6093 28.8376C87.0108 25.4577 90.8697 21.6754 94.5907 19.0742C95.3514 18.5452 96.2243 18.1995 97.1409 18.0644C98.0575 17.9292 98.993 18.0082 99.874 18.2951C100.755 18.5821 101.558 19.0692 102.219 19.7183C102.88 20.3674 103.382 21.1608 103.685 22.0364C106.471 30.0001 107.64 38.83 108.685 47.9324C108.685 47.9379 108.685 47.9434 108.685 47.9489C109.684 50.6547 110.191 53.4451 110.191 56.2465C110.191 63.3097 106.838 69.1782 100.494 73.2157C94.6753 76.9197 86.7561 78.8777 77.591 78.8777ZM48.2046 48.5985C47.2284 51.1083 46.7337 53.6766 46.7337 56.244C46.7337 62.6812 49.808 68.0411 55.6237 71.7439C61.0826 75.2198 68.8847 77.1343 77.591 77.1343C86.2974 77.1343 94.0985 75.2198 99.5579 71.7439C105.373 68.0411 108.444 62.6812 108.444 56.244C108.444 53.5818 107.949 50.9272 106.974 48.3539C106.921 48.2168 106.905 48.0688 106.925 47.9235C105.898 38.9946 104.742 30.3445 102.036 22.6098C101.82 21.9838 101.461 21.4169 100.987 20.954C100.514 20.4912 99.9385 20.1453 99.3078 19.9438C98.6865 19.7403 98.0263 19.6847 97.3798 19.7816C96.7332 19.8784 96.1183 20.1249 95.5839 20.5015C91.8481 23.1129 87.9752 26.9545 85.7176 30.2887C85.6212 30.4305 85.4851 30.5408 85.3264 30.6059C85.1677 30.671 84.9934 30.688 84.8251 30.6547C80.1702 29.7157 75.2403 29.7661 70.5481 30.8037C70.4317 30.8295 70.3111 30.8311 70.1939 30.8084C70.0768 30.7857 69.9656 30.7392 69.8671 30.6718C69.7687 30.6043 69.6852 30.5174 69.6217 30.4163C69.5583 30.3153 69.5162 30.2022 69.4983 30.0843C67.2224 26.7988 63.4312 23.0596 59.7712 20.5011C59.2371 20.1249 58.6226 19.8786 57.9765 19.7818C57.3305 19.6849 56.6707 19.7403 56.0498 19.9434C55.4189 20.1447 54.8438 20.4905 54.3701 20.9534C53.8965 21.4162 53.5375 21.9833 53.3217 22.6094C50.6176 30.3378 49.4615 38.9802 48.4349 47.9003C48.4329 47.9319 48.4292 47.9634 48.4239 47.9946C48.4188 48.0395 48.4137 48.0835 48.4086 48.1279C48.3897 48.3018 48.3186 48.4658 48.2046 48.5985V48.5985Z" fill="#363636"/>
<path d="M54.0121 39.1001C53.9049 39.1002 53.7988 39.0777 53.7009 39.034C53.6029 38.9903 53.5153 38.9264 53.4438 38.8465C53.3722 38.7666 53.3184 38.6725 53.2857 38.5704C53.253 38.4682 53.2423 38.3603 53.2542 38.2537C53.2965 37.8852 54.2495 29.2004 54.8623 26.5767C54.9491 26.2046 55.1387 25.8645 55.4096 25.595C55.6804 25.3256 56.0215 25.1377 56.3941 25.0528C56.7666 24.968 57.1554 24.9896 57.5163 25.1151C57.8771 25.2407 58.1953 25.4652 58.4347 25.763C59.6831 27.3139 61.4617 29.6934 62.8399 32.2172C62.9345 32.3899 62.9586 32.5926 62.907 32.7827C62.8554 32.9727 62.7321 33.1354 62.5632 33.2366C60.0203 34.7647 57.3789 36.6279 54.4882 38.9333C54.3529 39.0412 54.1851 39.1 54.0121 39.1001V39.1001ZM56.8529 26.5272C56.8126 26.5274 56.7724 26.5319 56.7331 26.5407C56.6386 26.5606 56.5519 26.6075 56.4834 26.6756C56.4149 26.7437 56.3676 26.8302 56.3472 26.9246C55.9202 28.7501 55.2952 33.862 54.9748 36.6152C57.136 34.9543 59.1698 33.5371 61.1434 32.317C59.8777 30.1288 58.3505 28.0929 57.2443 26.721C57.1987 26.6604 57.1395 26.6114 57.0716 26.5777C57.0036 26.5441 56.9287 26.5268 56.8529 26.5272Z" fill="#363636"/>
<g opacity="0.2">
<path d="M80.7381 32.3066C84.6143 32.9244 87.7526 34.0805 89.9916 35.8926C90.7855 36.5349 90.4731 37.8188 89.4762 38.0402C84.9956 39.035 81.5332 37.9648 79.4542 34.0911C78.9764 33.2008 79.7402 32.1475 80.7381 32.3066Z" fill="white"/>
</g>
<g opacity="0.2">
<path d="M94.8753 42.1399C95.5998 41.594 95.5786 40.3435 94.8279 39.3469C94.0772 38.3503 92.8813 37.9843 92.1564 38.5298C91.4315 39.0752 91.9025 39.9889 92.6515 40.9842C93.4005 41.9795 94.1504 42.6832 94.8753 42.1399Z" fill="white"/>
</g>
<g opacity="0.3">
<path d="M63.2394 61.5527C62.4974 61.8122 61.7171 61.9454 60.931 61.9466C59.9928 61.9468 59.0604 61.7985 58.1685 61.5074L53.0977 48.4512C54.071 47.1521 55.5025 46.2888 57.1178 45.7891L63.2394 61.5527Z" fill="white"/>
</g>
<g opacity="0.3">
<path d="M96.1095 61.1286C94.9358 61.6659 93.6604 61.9449 92.3696 61.9466C92.026 61.9465 91.683 61.9205 91.3434 61.8687L85.8125 47.6256C86.8861 46.5499 88.3477 45.8191 90.0294 45.4746L96.1095 61.1286Z" fill="white"/>
</g>
<g opacity="0.3">
<path d="M100.583 56.8551C99.9977 58 99.1824 59.012 98.1883 59.8279L92.5254 45.2437C93.8131 45.2568 95.1101 45.4404 96.3014 45.8251L100.583 56.8551Z" fill="white"/>
</g>
<g opacity="0.3">
<path d="M68.368 56.8551C67.782 57.9999 66.9665 59.0119 65.9724 59.8279L60.3091 45.2437C61.5964 45.2568 62.8934 45.4404 64.0846 45.8251L68.368 56.8551Z" fill="white"/>
</g>
<path d="M108.492 46.0899C107.366 46.2013 106.229 46.0396 105.178 45.6185C104.816 45.4746 104.485 45.2643 104.171 45.0354C96.2691 39.2146 86.6381 41.5493 79.8403 46.3265C77.714 44.4363 75.5875 44.4363 73.4609 46.3265C66.6631 41.5493 57.0325 39.2146 49.1306 45.0354C48.8167 45.2643 48.4849 45.4746 48.1235 45.6185C47.0735 46.0396 45.9375 46.2013 44.8117 46.0899C44.7452 46.0827 44.6779 46.0895 44.6142 46.11C44.5504 46.1305 44.4917 46.1641 44.4419 46.2088C44.392 46.2535 44.3521 46.3081 44.3248 46.3692C44.2975 46.4303 44.2833 46.4965 44.2832 46.5634V48.2185C44.2842 48.3295 44.3239 48.4367 44.3954 48.5217C44.467 48.6066 44.5658 48.664 44.6751 48.684C46.4101 49.0174 47.3453 50.3995 47.6652 52.5869C52.1584 72.8991 73.7301 67.2286 73.8058 50.2387C73.8077 49.8509 73.9444 49.4758 74.1925 49.1776C74.4405 48.8795 74.7845 48.6768 75.1655 48.6044C76.1764 48.4076 77.1705 48.3928 78.1438 48.5744C78.5244 48.6466 78.8679 48.8494 79.115 49.1477C79.3622 49.446 79.4976 49.8212 79.4979 50.2086C79.5491 67.2202 101.143 72.9102 105.639 52.5869C105.957 50.3995 106.892 49.0174 108.627 48.684C108.736 48.6643 108.835 48.607 108.907 48.522C108.978 48.437 109.018 48.3296 109.018 48.2185V46.5634C109.019 46.4966 109.005 46.4305 108.978 46.3694C108.951 46.3083 108.911 46.2536 108.861 46.2089C108.811 46.1642 108.753 46.1305 108.689 46.11C108.626 46.0895 108.558 46.0826 108.492 46.0899V46.0899ZM60.9312 61.9466C56.2069 61.9466 52.1453 58.1804 51.7907 53.5809C51.3252 47.5194 56.2082 45.2415 60.9312 45.2415C65.6543 45.2415 69.4124 47.8736 69.4124 52.4883C69.4124 57.103 65.6576 61.9466 60.9312 61.9466ZM101.513 53.5809C101.158 58.1804 97.0959 61.9466 92.3729 61.9466C87.6499 61.9466 83.8917 57.0992 83.8917 52.4883C83.8917 47.8774 87.6486 45.2415 92.3729 45.2415C97.0972 45.2415 101.978 47.5194 101.512 53.5809H101.513Z" fill="#F42C4F"/>
<path d="M60.5121 65.6653C57.8885 65.6653 55.3532 64.7457 53.2636 63.0171C50.5413 60.7645 48.5698 57.1659 47.5618 52.61C47.2304 50.3482 46.2804 49.1006 44.655 48.7883C44.5217 48.7634 44.4012 48.693 44.3141 48.5891C44.2269 48.4853 44.1786 48.3543 44.1772 48.2187V46.5637C44.1773 46.482 44.1946 46.4011 44.2279 46.3265C44.2613 46.2518 44.31 46.185 44.3709 46.1304C44.4317 46.0758 44.5034 46.0346 44.5812 46.0095C44.6591 45.9845 44.7413 45.976 44.8226 45.9848C45.9314 46.0928 47.05 45.9332 48.0844 45.5193C48.3874 45.3991 48.7001 45.2176 49.0683 44.9493C57.1818 38.9733 66.9685 41.6638 73.4536 46.1918C75.5754 44.3433 77.7276 44.3438 79.8477 46.1918C86.3316 41.6638 96.1195 38.9729 104.233 44.9497C104.601 45.2176 104.914 45.3991 105.217 45.5193C106.252 45.9331 107.371 46.0927 108.48 45.9848V45.9848C108.562 45.9761 108.644 45.9845 108.721 46.0097C108.799 46.0348 108.871 46.076 108.931 46.1306C108.992 46.1853 109.04 46.2521 109.074 46.3267C109.107 46.4013 109.124 46.4821 109.124 46.5637V48.2187C109.122 48.3544 109.074 48.4853 108.987 48.5892C108.9 48.6931 108.779 48.7635 108.646 48.7883C107.02 49.1006 106.071 50.3482 105.743 52.6024C104.733 57.168 102.76 60.7696 100.036 63.0192C97.6273 65.0111 94.6236 65.9272 91.5806 65.6006C88.3767 65.2552 85.3777 63.615 83.1366 60.982C80.6991 58.118 79.4042 54.3933 79.392 50.2102C79.3908 49.8474 79.2636 49.4964 79.0319 49.2172C78.8003 48.938 78.4788 48.7481 78.1224 48.68C77.1847 48.5027 76.1953 48.5107 75.1839 48.7101C74.8275 48.7789 74.5059 48.969 74.2737 49.2479C74.0414 49.5269 73.9128 49.8777 73.9098 50.2407C73.8916 54.4182 72.5928 58.1366 70.1549 60.9947C67.9121 63.6231 64.9152 65.2595 61.7135 65.6018C61.3144 65.6442 60.9134 65.6654 60.5121 65.6653ZM44.7604 46.1934C44.6685 46.1933 44.5798 46.2272 44.5116 46.2887C44.4727 46.3231 44.4416 46.3655 44.4204 46.4129C44.3993 46.4604 44.3885 46.5118 44.3888 46.5637V48.2187C44.3901 48.3052 44.4213 48.3886 44.4772 48.4545C44.5331 48.5205 44.6101 48.5651 44.6952 48.5806C46.3955 48.9072 47.4297 50.25 47.77 52.5715C50.0492 62.8757 56.4564 65.9522 61.6924 65.3902C67.6286 64.7555 73.6592 59.3465 73.6994 50.2407C73.7028 49.8287 73.8486 49.4306 74.1121 49.1139C74.3756 48.7971 74.7405 48.5814 75.145 48.5031C76.1835 48.3008 77.1991 48.2915 78.1631 48.4727C78.567 48.551 78.9312 48.7671 79.1936 49.0841C79.456 49.401 79.6003 49.7992 79.6018 50.2106C79.6289 59.3308 85.6591 64.7508 91.6017 65.3911C96.8393 65.9547 103.251 62.8829 105.533 52.566C105.872 50.2525 106.903 48.9094 108.604 48.5827C108.689 48.5673 108.767 48.5227 108.822 48.4567C108.878 48.3907 108.909 48.3073 108.91 48.2209V46.5658C108.911 46.5139 108.9 46.4624 108.879 46.4149C108.858 46.3673 108.827 46.3248 108.788 46.29C108.75 46.2552 108.704 46.229 108.655 46.2131C108.605 46.1972 108.553 46.1919 108.501 46.1977C107.358 46.309 106.204 46.1449 105.137 45.7191C104.817 45.5921 104.489 45.4025 104.106 45.1232C96.0548 39.1916 86.3223 41.9021 79.901 46.4156L79.8325 46.4639L79.7699 46.4084C77.6709 44.5426 75.63 44.5431 73.5314 46.4084L73.4688 46.4639L73.3986 46.4139C66.9752 41.8999 57.2431 39.1904 49.1931 45.1211C48.8097 45.4008 48.4822 45.59 48.1618 45.7174C47.0955 46.1434 45.9426 46.3075 44.7997 46.196C44.7867 46.1943 44.7735 46.1935 44.7604 46.1934V46.1934ZM92.3698 62.0527C87.4551 62.0527 83.7828 57.0034 83.7828 52.489C83.7828 48.0914 87.2338 45.1368 92.3698 45.1368C95.5182 45.1368 98.2481 46.1346 99.86 47.8747C101.206 49.3283 101.798 51.2508 101.618 53.5875C101.256 58.256 97.1076 62.0527 92.3698 62.0527ZM92.3698 45.3479C87.3603 45.3479 83.9944 48.2175 83.9944 52.4886C83.9944 56.9035 87.5761 61.8407 92.3698 61.8407C96.9997 61.8407 101.054 58.1316 101.407 53.5723C101.581 51.2948 101.009 49.4252 99.7042 48.0169C98.1326 46.3208 95.4594 45.3479 92.3698 45.3479ZM60.9315 62.0527C56.192 62.0527 52.0449 58.256 51.6839 53.5892C51.5041 51.2504 52.0952 49.3279 53.4418 47.8764C55.0532 46.1363 57.7831 45.1385 60.9319 45.1385C66.068 45.1385 69.5189 48.0931 69.5189 52.4907C69.5185 57.0034 65.8458 62.0527 60.9315 62.0527V62.0527ZM60.9315 45.3479C57.8423 45.3479 55.1683 46.3212 53.5971 48.0177C52.2924 49.4265 51.7199 51.2956 51.8946 53.5731C52.2476 58.132 56.3016 61.8411 60.9315 61.8411C65.7248 61.8411 69.3069 56.9035 69.3069 52.489C69.3069 48.2175 65.941 45.3479 60.9315 45.3479V45.3479Z" fill="#363636"/>
<g opacity="0.55">
<path d="M108.492 46.0899C107.366 46.2013 106.229 46.0396 105.178 45.6185C104.816 45.4746 104.485 45.2643 104.171 45.0354C96.2691 39.2146 86.6381 41.5493 79.8403 46.3265C77.714 44.4363 75.5875 44.4363 73.4609 46.3265C66.6631 41.5493 57.0325 39.2146 49.1306 45.0354C48.8167 45.2643 48.4849 45.4746 48.1235 45.6185C47.0735 46.0396 45.9375 46.2013 44.8117 46.0899C44.7452 46.0827 44.6779 46.0895 44.6142 46.11C44.5504 46.1305 44.4917 46.1641 44.4419 46.2088C44.392 46.2535 44.3521 46.3081 44.3248 46.3692C44.2975 46.4303 44.2833 46.4965 44.2832 46.5634V48.1715C44.2832 48.1046 44.2973 48.0384 44.3247 47.9773C44.352 47.9161 44.3919 47.8615 44.4418 47.8168C44.4916 47.7722 44.5504 47.7386 44.6141 47.7182C44.6779 47.6977 44.7452 47.691 44.8117 47.6984C45.9375 47.8096 47.0736 47.6477 48.1235 47.2266C48.4849 47.0827 48.8167 46.8728 49.1306 46.6434C57.0325 40.8227 66.6631 43.1573 73.4631 47.9349C75.5896 46.0448 77.7161 46.0448 79.8424 47.9349C86.6402 43.1573 96.2712 40.8227 104.175 46.6434C104.489 46.8728 104.821 47.0827 105.182 47.2266C106.233 47.6477 107.37 47.8095 108.496 47.6984C108.563 47.6911 108.63 47.6979 108.693 47.7184C108.757 47.7389 108.815 47.7726 108.865 47.8172C108.915 47.8619 108.954 47.9165 108.981 47.9776C109.009 48.0386 109.022 48.1047 109.022 48.1715V46.5634C109.023 46.4962 109.009 46.4298 108.981 46.3684C108.954 46.307 108.914 46.2521 108.864 46.2073C108.814 46.1626 108.755 46.129 108.69 46.1087C108.626 46.0885 108.559 46.0821 108.492 46.0899V46.0899ZM101.51 53.6186C101.135 58.2011 97.0824 61.9466 92.3691 61.9466C87.9233 61.9466 84.3331 57.6518 83.9277 53.3025C83.901 53.5667 83.8877 53.832 83.8879 54.0976C83.8879 58.7102 87.6448 63.5559 92.3691 63.5559C97.0934 63.5559 101.155 59.7897 101.51 55.1902C101.553 54.6672 101.553 54.1415 101.508 53.6186H101.51ZM69.3739 53.3025C68.969 57.6518 65.3805 61.9466 60.9325 61.9466C56.2213 61.9466 52.1694 58.2011 51.7945 53.6186C51.7495 54.1414 51.7483 54.6671 51.7907 55.1902C52.1466 59.7897 56.2082 63.5559 60.9312 63.5559C65.6543 63.5559 69.4124 58.7085 69.4124 54.0976C69.4129 53.832 69.3996 53.5666 69.3727 53.3025H69.3739Z" fill="white"/>
</g>
<path d="M60.5111 66.2859C57.7444 66.2859 55.0704 65.3168 52.8678 63.4951C50.038 61.1541 47.9941 57.4365 46.956 52.744C46.9522 52.727 46.9493 52.7097 46.9467 52.6923C46.5659 50.0814 45.3899 49.5609 44.5389 49.3984C44.2639 49.346 44.0156 49.1997 43.8365 48.9845C43.6574 48.7693 43.5587 48.4985 43.5571 48.2186V46.5635C43.5571 46.3947 43.5925 46.2277 43.6612 46.0735C43.7299 45.9193 43.8304 45.7813 43.9559 45.6684C44.0815 45.5556 44.2295 45.4704 44.3901 45.4185C44.5508 45.3666 44.7206 45.3492 44.8884 45.3672C45.8974 45.4652 46.9152 45.3201 47.8566 44.944C48.1105 44.8438 48.3783 44.6863 48.7029 44.4494C56.9163 38.398 66.7609 40.9303 73.4204 45.4176C75.5435 43.7719 77.7592 43.7719 79.8822 45.4176C86.5417 40.9319 96.386 38.3988 104.602 44.4515C104.925 44.6863 105.195 44.8438 105.449 44.9445C106.39 45.3201 107.407 45.4652 108.415 45.3676V45.3676C108.583 45.3496 108.753 45.3671 108.914 45.419C109.074 45.4709 109.222 45.556 109.348 45.6688C109.474 45.7817 109.574 45.9197 109.643 46.0739C109.711 46.2282 109.747 46.3951 109.747 46.5639V48.219C109.745 48.4988 109.647 48.7694 109.468 48.9846C109.289 49.1997 109.041 49.346 108.766 49.3984C107.914 49.5621 106.739 50.0818 106.357 52.6928C106.355 52.7101 106.352 52.7274 106.348 52.7444C105.309 57.4386 103.264 61.1575 100.432 63.4985C97.8929 65.5978 94.725 66.5631 91.514 66.2173C88.151 65.8551 85.0081 64.1383 82.6637 61.3834C80.1302 58.4064 78.7841 54.5433 78.7706 50.2117C78.7702 49.9935 78.6941 49.7822 78.5551 49.614C78.4162 49.4458 78.2231 49.3311 78.0089 49.2896C77.149 49.1271 76.2387 49.1364 75.3039 49.318C75.0885 49.3594 74.8941 49.4741 74.7536 49.6425C74.6131 49.811 74.5351 50.0228 74.5329 50.2422C74.5135 54.5682 73.1635 58.425 70.6292 61.3966C68.2835 64.1472 65.141 65.8585 61.7806 66.2182C61.3589 66.2632 60.9352 66.2858 60.5111 66.2859V66.2859ZM76.7609 47.7201C77.2709 47.7193 77.7798 47.7663 78.281 47.8605C78.8272 47.9652 79.3201 48.2565 79.6752 48.6846C80.0304 49.1126 80.2256 49.6508 80.2275 50.207C80.2534 58.9616 86.0043 64.1603 91.6718 64.7714C96.6403 65.3088 102.726 62.3508 104.924 52.457C105.298 49.9493 106.431 48.456 108.295 48.0137V46.8369C107.142 46.906 105.987 46.7206 104.914 46.294C104.543 46.1467 104.173 45.9334 103.746 45.6228C95.9569 39.8846 86.5083 42.5337 80.2601 46.9215C80.1262 47.0156 79.9643 47.0617 79.8009 47.0524C79.6374 47.043 79.482 46.9787 79.3596 46.8699C77.5125 45.2288 75.7927 45.2288 73.946 46.8699C73.8236 46.9788 73.668 47.0432 73.5045 47.0525C73.341 47.0619 73.1791 47.0157 73.045 46.9215C66.7986 42.5315 57.35 39.8846 49.5636 45.6207C49.1345 45.9334 48.7638 46.1467 48.394 46.294C47.3201 46.7202 46.1658 46.9055 45.0124 46.8369V48.012C46.8744 48.453 48.0093 49.9468 48.3826 52.4554C50.5792 62.3453 56.6607 65.3029 61.6279 64.7697C67.2899 64.1641 73.0417 58.9764 73.0802 50.2328C73.0847 49.6775 73.2809 49.1408 73.6356 48.7135C73.9903 48.2863 74.4818 47.9947 75.0268 47.8881C75.5976 47.7769 76.1777 47.7206 76.7592 47.7201H76.7609ZM92.373 62.6737C87.1024 62.6737 83.1644 57.2964 83.1644 52.4888C83.1644 47.7192 86.865 44.5149 92.373 44.5149C95.6936 44.5149 98.5894 45.5856 100.318 47.4522C101.787 49.0378 102.434 51.1185 102.24 53.6368C101.853 58.6201 97.4261 62.6737 92.3713 62.6737H92.373ZM92.373 45.969C88.5133 45.969 84.6188 47.985 84.6188 52.4888C84.6188 56.6101 87.9348 61.2197 92.373 61.2197C96.6856 61.2197 100.462 57.7679 100.79 53.5247C100.951 51.4275 100.434 49.7162 99.2513 48.4403C97.7951 46.8699 95.2883 45.969 92.3713 45.969H92.373ZM60.9313 62.6737C55.8761 62.6737 51.4497 58.6201 51.0642 53.6373C50.8708 51.1185 51.517 49.0378 52.9858 47.4522C54.7145 45.5856 57.6103 44.5149 60.9313 44.5149C66.4389 44.5149 70.1395 47.7192 70.1395 52.4888C70.1404 57.2964 66.2049 62.6737 60.9326 62.6737H60.9313ZM60.9313 45.969C58.014 45.969 55.5071 46.8699 54.0526 48.4403C52.8703 49.7166 52.3528 51.4275 52.514 53.5251C52.8424 57.7679 56.6188 61.2197 60.9313 61.2197C65.3691 61.2197 68.6851 56.6101 68.6851 52.4888C68.6864 47.985 64.7919 45.969 60.9326 45.969H60.9313Z" fill="#363636"/>
<path d="M49.3057 108.586H112.68C113.116 108.586 113.534 108.759 113.842 109.067C114.15 109.375 114.323 109.793 114.323 110.229V123.015C114.323 123.451 114.15 123.869 113.842 124.177C113.534 124.485 113.116 124.658 112.68 124.658H49.3057C48.3438 124.658 47.4212 124.276 46.741 123.596C46.0608 122.916 45.6787 121.993 45.6787 121.031V112.213C45.6787 111.251 46.0608 110.328 46.741 109.648C47.4212 108.968 48.3438 108.586 49.3057 108.586V108.586Z" fill="#6E76F1"/>
<g opacity="0.7">
<path d="M112.68 108.586H49.3062C48.3443 108.586 47.4217 108.968 46.7415 109.648C46.0613 110.328 45.6792 111.251 45.6792 112.213V121.031C45.6786 121.624 45.824 122.207 46.1024 122.73C46.1024 122.728 46.1024 122.726 46.1024 122.724V113.906C46.1024 112.944 46.4845 112.021 47.1647 111.341C47.8449 110.661 48.7674 110.279 49.7294 110.279H54.4444C54.8405 110.992 57.1696 111.54 59.9837 111.54C62.7978 111.54 65.1269 110.992 65.523 110.279H113.104C113.334 110.279 113.562 110.327 113.772 110.421C113.982 110.515 114.17 110.652 114.324 110.824V110.231C114.324 110.015 114.282 109.801 114.199 109.602C114.117 109.402 113.996 109.221 113.843 109.068C113.691 108.915 113.509 108.794 113.31 108.711C113.11 108.628 112.896 108.586 112.68 108.586V108.586Z" fill="white"/>
</g>
<path d="M52.8871 108.562H50.3032V124.658H52.8871V108.562Z" fill="white"/>
<path d="M57.9613 108.562H55.3774V124.658H57.9613V108.562Z" fill="white"/>
<g opacity="0.3">
<path d="M112.68 120.426H49.3062C48.3443 120.426 47.4217 120.044 46.7415 119.364C46.0613 118.684 45.6792 117.761 45.6792 116.799V121.031C45.6792 121.993 46.0613 122.916 46.7415 123.596C47.4217 124.276 48.3443 124.658 49.3062 124.658H112.68C112.896 124.658 113.11 124.616 113.309 124.533C113.509 124.451 113.69 124.329 113.843 124.177C113.995 124.024 114.116 123.843 114.199 123.644C114.281 123.444 114.324 123.231 114.324 123.015V118.783C114.324 118.999 114.281 119.213 114.199 119.412C114.116 119.611 113.995 119.793 113.843 119.945C113.69 120.098 113.509 120.219 113.309 120.301C113.11 120.384 112.896 120.426 112.68 120.426V120.426Z" fill="#363636"/>
</g>
<path d="M112.679 125.505H49.3053C48.1193 125.503 46.9821 125.032 46.1434 124.193C45.3047 123.354 44.8329 122.217 44.8315 121.031V112.213C44.8329 111.027 45.3047 109.89 46.1434 109.051C46.9821 108.213 48.1193 107.741 49.3053 107.74H112.679C113.339 107.741 113.972 108.003 114.439 108.47C114.905 108.936 115.168 109.569 115.169 110.229V123.015C115.168 123.675 114.905 124.308 114.439 124.774C113.972 125.241 113.339 125.504 112.679 125.505V125.505ZM49.3053 109.432C48.568 109.433 47.8612 109.726 47.3398 110.248C46.8184 110.769 46.5251 111.476 46.5242 112.213V121.031C46.5251 121.768 46.8184 122.475 47.3398 122.997C47.8612 123.518 48.568 123.811 49.3053 123.812H112.679C112.89 123.811 113.093 123.727 113.242 123.578C113.392 123.429 113.476 123.226 113.476 123.015V110.228C113.476 110.017 113.392 109.814 113.242 109.665C113.093 109.516 112.89 109.432 112.679 109.431L49.3053 109.432Z" fill="#363636"/>
<path d="M79.3085 112.259H114.322V121.101H79.3085C78.9408 121.101 78.5768 121.028 78.2371 120.887C77.8974 120.747 77.5888 120.541 77.3288 120.281C77.0688 120.021 76.8626 119.712 76.7219 119.372C76.5812 119.033 76.5088 118.669 76.5088 118.301V115.059C76.5088 114.691 76.5812 114.327 76.7219 113.988C76.8626 113.648 77.0688 113.339 77.3288 113.079C77.5888 112.819 77.8974 112.613 78.2371 112.472C78.5768 112.332 78.9408 112.259 79.3085 112.259Z" fill="white"/>
<g opacity="0.3">
<path d="M81.847 119.194C81.4794 119.194 81.1153 119.122 80.7756 118.981C80.436 118.841 80.1273 118.634 79.8674 118.374C79.6074 118.114 79.4011 117.806 79.2605 117.466C79.1198 117.126 79.0473 116.762 79.0473 116.395V113.153C79.0478 112.851 79.0974 112.55 79.1942 112.264C78.4725 112.293 77.7899 112.6 77.2893 113.12C76.7887 113.641 76.5088 114.335 76.5083 115.057V118.299C76.5083 118.667 76.5807 119.031 76.7214 119.37C76.8621 119.71 77.0683 120.019 77.3283 120.279C77.5883 120.539 77.8969 120.745 78.2366 120.886C78.5763 121.026 78.9403 121.099 79.308 121.099H114.322V119.194H81.847Z" fill="#363636"/>
</g>
<path d="M114.322 121.875H79.3088C78.3608 121.874 77.452 121.497 76.7817 120.826C76.1114 120.156 75.7344 119.247 75.7334 118.299V115.058C75.7344 114.11 76.1114 113.201 76.7817 112.531C77.452 111.86 78.3608 111.483 79.3088 111.482H114.322C114.528 111.482 114.726 111.564 114.871 111.709C115.017 111.855 115.098 112.052 115.099 112.258V121.099C115.099 121.305 115.017 121.502 114.871 121.648C114.726 121.793 114.528 121.875 114.322 121.875V121.875ZM79.3088 113.034C78.7722 113.034 78.2577 113.248 77.8783 113.627C77.499 114.007 77.2856 114.521 77.2852 115.058V118.299C77.2857 118.836 77.4991 119.35 77.8785 119.73C78.2578 120.109 78.7722 120.323 79.3088 120.323H113.547V113.034H79.3088Z" fill="#363636"/>
<g opacity="0.4">
<path d="M105.828 114.875C106.536 114.786 107.244 114.744 107.952 114.714L110.075 114.643C110.783 114.617 111.491 114.606 112.199 114.588C112.906 114.571 113.615 114.563 114.323 114.557V115.192C113.615 115.186 112.907 115.178 112.199 115.161C111.491 115.143 110.783 115.131 110.075 115.105L107.952 115.035C107.244 115.005 106.536 114.963 105.828 114.875Z" fill="#363636"/>
<path d="M76.5752 114.557C80.5729 114.531 84.5706 114.553 88.5683 114.576L94.5651 114.638C96.5637 114.664 98.5628 114.638 100.561 114.875C98.5628 115.11 96.5637 115.086 94.5651 115.111L88.5683 115.173C84.5706 115.197 80.5729 115.218 76.5752 115.192V114.557Z" fill="#363636"/>
<path d="M93.5684 116.785C95.2983 116.55 97.0278 116.559 98.7573 116.537L103.946 116.477L109.134 116.451C110.864 116.449 112.593 116.451 114.323 116.467V117.102C112.593 117.118 110.864 117.123 109.134 117.118L103.946 117.092L98.7573 117.031C97.0278 117.01 95.2983 117.019 93.5684 116.785Z" fill="#363636"/>
<path d="M76.5752 116.467C77.6599 116.458 78.7445 116.458 79.829 116.467L83.0823 116.502L86.3357 116.566C87.4203 116.583 88.5049 116.605 89.5894 116.784C88.5049 116.963 87.4203 116.986 86.3357 117.002L83.0823 117.066L79.829 117.101C78.7442 117.109 77.6596 117.109 76.5752 117.101V116.467Z" fill="#363636"/>
<path d="M103.945 118.694C104.81 118.567 105.675 118.512 106.539 118.479L109.134 118.413C109.998 118.387 110.863 118.385 111.728 118.374C112.16 118.368 112.593 118.366 113.025 118.368C113.458 118.368 113.89 118.368 114.322 118.376V119.011C113.89 119.019 113.458 119.018 113.025 119.019C112.593 119.02 112.16 119.019 111.728 119.013C110.863 119.003 109.998 119 109.134 118.974L106.539 118.909C105.675 118.876 104.81 118.821 103.945 118.694Z" fill="#363636"/>
<path d="M76.5752 118.377L81.9203 118.406L87.265 118.457L92.6096 118.527C94.3912 118.548 96.1732 118.569 97.9543 118.696C96.1732 118.823 94.3912 118.842 92.6096 118.865L87.265 118.935L81.9203 118.986L76.5752 119.015V118.377Z" fill="#363636"/>
</g>
<path d="M110.696 140.73H47.3215C46.8857 140.73 46.4677 140.557 46.1596 140.249C45.8514 139.941 45.6783 139.523 45.6783 139.087V126.3C45.6783 125.864 45.8514 125.447 46.1596 125.138C46.4677 124.83 46.8857 124.657 47.3215 124.657H110.696C111.658 124.657 112.58 125.039 113.26 125.719C113.941 126.4 114.323 127.322 114.323 128.284V137.103C114.323 138.065 113.941 138.988 113.26 139.668C112.58 140.348 111.658 140.73 110.696 140.73Z" fill="#F42C4F"/>
<path d="M107.114 140.73H109.698V124.635H107.114V140.73Z" fill="#FFBC1F"/>
<path d="M102.04 140.73H104.624V124.635H102.04V140.73Z" fill="#FFBC1F"/>
<g opacity="0.3">
<path d="M47.3224 136.499H110.697C111.173 136.499 111.645 136.405 112.085 136.222C112.525 136.04 112.925 135.773 113.261 135.436C113.598 135.099 113.865 134.7 114.048 134.26C114.23 133.82 114.324 133.348 114.324 132.872V137.103C114.324 137.58 114.23 138.051 114.048 138.491C113.865 138.931 113.598 139.331 113.261 139.668C112.925 140.005 112.525 140.272 112.085 140.454C111.645 140.636 111.173 140.73 110.697 140.73H47.3224C47.1066 140.73 46.8929 140.688 46.6935 140.605C46.4941 140.523 46.3129 140.402 46.1604 140.249C46.0078 140.097 45.8867 139.915 45.8042 139.716C45.7216 139.517 45.6791 139.303 45.6792 139.087V134.857C45.6794 135.292 45.8527 135.71 46.1608 136.018C46.4689 136.326 46.8868 136.499 47.3224 136.499V136.499Z" fill="#363636"/>
</g>
<g opacity="0.7">
<path d="M47.3224 124.658H110.697C111.173 124.658 111.645 124.752 112.085 124.934C112.525 125.117 112.925 125.384 113.261 125.721C113.598 126.057 113.865 126.457 114.048 126.897C114.23 127.337 114.324 127.809 114.324 128.285V137.103C114.324 137.696 114.179 138.279 113.901 138.802C113.901 138.802 113.901 138.798 113.901 138.796V129.978C113.901 129.016 113.518 128.093 112.838 127.413C112.158 126.733 111.235 126.351 110.273 126.351H105.559C105.162 127.064 102.833 127.612 100.019 127.612C97.2051 127.612 94.8759 127.064 94.4798 126.351H46.8992C46.669 126.351 46.4413 126.399 46.2311 126.493C46.0208 126.587 45.8328 126.724 45.6792 126.896V126.301C45.6791 126.086 45.7216 125.872 45.8042 125.672C45.8867 125.473 46.0078 125.292 46.1604 125.139C46.3129 124.987 46.4941 124.866 46.6935 124.783C46.8929 124.701 47.1066 124.658 47.3224 124.658V124.658Z" fill="white"/>
</g>
<path d="M110.695 141.577H47.3211C46.661 141.576 46.0283 141.313 45.5616 140.847C45.0949 140.38 44.8323 139.747 44.8315 139.087V126.302C44.8323 125.642 45.0949 125.009 45.5616 124.542C46.0283 124.075 46.661 123.813 47.3211 123.812H110.695C111.881 123.813 113.018 124.285 113.857 125.124C114.696 125.962 115.167 127.099 115.169 128.285V137.103C115.167 138.289 114.696 139.426 113.857 140.265C113.018 141.104 111.881 141.575 110.695 141.577V141.577ZM47.3211 125.505C47.1098 125.505 46.9073 125.589 46.7579 125.738C46.6085 125.888 46.5245 126.09 46.5242 126.302V139.089C46.5245 139.3 46.6085 139.502 46.7579 139.652C46.9073 139.801 47.1098 139.885 47.3211 139.885H110.695C111.433 139.884 112.139 139.591 112.661 139.07C113.182 138.549 113.475 137.842 113.476 137.105V128.285C113.475 127.548 113.182 126.841 112.661 126.32C112.139 125.799 111.433 125.506 110.695 125.505H47.3211Z" fill="#363636"/>
<path d="M80.691 137.171H45.6773V128.33H80.691C81.0587 128.33 81.4227 128.402 81.7624 128.543C82.1021 128.684 82.4107 128.89 82.6707 129.15C82.9307 129.41 83.1369 129.719 83.2776 130.058C83.4183 130.398 83.4907 130.762 83.4907 131.13V134.372C83.4907 134.739 83.4183 135.103 83.2776 135.443C83.1369 135.783 82.9307 136.091 82.6707 136.351C82.4107 136.611 82.1021 136.818 81.7624 136.958C81.4227 137.099 81.0587 137.171 80.691 137.171Z" fill="white"/>
<g opacity="0.3">
<path d="M78.1539 135.267C78.8964 135.267 79.6085 134.972 80.1336 134.447C80.6586 133.922 80.9536 133.21 80.9536 132.467V129.226C80.9531 128.923 80.9035 128.623 80.8067 128.337C81.5284 128.366 82.2109 128.673 82.7115 129.193C83.2121 129.714 83.492 130.408 83.4926 131.13V134.371C83.4926 135.114 83.1976 135.826 82.6726 136.351C82.1475 136.876 81.4354 137.171 80.6929 137.171H45.6792V135.267H78.1539Z" fill="#363636"/>
</g>
<path d="M80.6912 137.946H45.6775C45.4716 137.946 45.2742 137.864 45.1287 137.718C44.9831 137.573 44.9014 137.375 44.9014 137.169V128.329C44.9015 128.124 44.9833 127.926 45.1288 127.781C45.2744 127.635 45.4717 127.554 45.6775 127.554H80.6912C81.6392 127.555 82.5482 127.932 83.2185 128.602C83.8889 129.273 84.266 130.181 84.267 131.13V134.371C84.2655 135.319 83.8883 136.227 83.218 136.897C82.5476 137.568 81.639 137.944 80.6912 137.946V137.946ZM46.4531 136.394H80.6912C81.2278 136.393 81.7422 136.18 82.1216 135.8C82.5011 135.421 82.7145 134.906 82.7152 134.37V131.128C82.7146 130.592 82.5012 130.077 82.1218 129.698C81.7423 129.318 81.2278 129.105 80.6912 129.104H46.4531V136.394Z" fill="#363636"/>
<g opacity="0.4">
<path d="M54.1744 130.946C53.4664 131.035 52.7584 131.077 52.0505 131.107L49.9266 131.177C49.2186 131.203 48.5106 131.215 47.8031 131.232C47.0956 131.25 46.3872 131.258 45.6792 131.264V130.629C46.3872 130.634 47.0951 130.642 47.8031 130.66C48.5111 130.678 49.2186 130.689 49.9266 130.715L52.0505 130.785C52.7584 130.816 53.4685 130.857 54.1744 130.946Z" fill="#363636"/>
<path d="M83.4257 131.264C79.428 131.29 75.4303 131.268 71.4326 131.245L65.4358 131.183C63.4372 131.157 61.4381 131.183 59.4395 130.946C61.4381 130.711 63.4372 130.735 65.4358 130.709L71.4326 130.648C75.4303 130.624 79.428 130.603 83.4257 130.629V131.264Z" fill="#363636"/>
<path d="M66.4337 132.856C64.7038 133.09 62.9742 133.082 61.2447 133.103L56.0562 133.164L50.8677 133.19C49.1384 133.193 47.4088 133.187 45.6792 133.174V132.539C47.4087 132.523 49.1382 132.521 50.8677 132.523L56.0562 132.549L61.2447 132.61C62.9742 132.63 64.7038 132.622 66.4337 132.856Z" fill="#363636"/>
<path d="M83.4268 133.174C82.3424 133.183 81.2578 133.183 80.1731 133.174L76.9197 133.138L73.6664 133.075C72.5818 133.058 71.4972 133.035 70.4126 132.856C71.4972 132.677 72.5818 132.654 73.6664 132.638L76.9197 132.574L80.1731 132.539C81.2578 132.531 82.3424 132.531 83.4268 132.539V133.174Z" fill="#363636"/>
<path d="M56.0562 134.766C55.1917 134.893 54.3267 134.948 53.4622 134.981L50.8677 135.047C50.0032 135.073 49.1382 135.075 48.2732 135.086C47.841 135.092 47.4087 135.094 46.9762 135.092C46.5437 135.092 46.1117 135.092 45.6792 135.084V134.449C46.1117 134.441 46.5437 134.442 46.9762 134.441C47.4087 134.44 47.8412 134.441 48.2732 134.447C49.1382 134.457 50.0032 134.46 50.8677 134.486L53.4622 134.551C54.3267 134.585 55.1917 134.639 56.0562 134.766Z" fill="#363636"/>
<path d="M83.4264 135.083L78.0814 135.055L72.7367 135.003L67.392 134.934C65.6105 134.912 63.8285 134.891 62.0474 134.764C63.8285 134.637 65.6105 134.618 67.392 134.595L72.7367 134.526L78.0814 134.475L83.4264 134.445V135.083Z" fill="#363636"/>
</g>
<path d="M35.1432 140.413C36.0741 140.155 37.0051 140.018 37.9361 139.914C38.8671 139.809 39.7981 139.772 40.729 139.742C42.591 139.673 44.453 139.709 46.3149 139.747C48.1769 139.784 50.0388 139.777 51.9008 139.778H113.364H116.157C117.088 139.778 118.019 139.736 118.95 139.715C119.882 139.694 120.814 139.725 121.743 139.806C122.674 139.901 123.605 140.057 124.536 140.414C124.601 140.438 124.656 140.481 124.696 140.538C124.735 140.595 124.756 140.662 124.756 140.731C124.756 140.8 124.735 140.868 124.696 140.925C124.656 140.981 124.601 141.025 124.536 141.049C123.605 141.405 122.674 141.562 121.743 141.656C120.814 141.738 119.882 141.768 118.95 141.747C118.019 141.727 117.088 141.684 116.157 141.684H113.364H51.9046C50.0426 141.684 48.1807 141.676 46.3187 141.716C44.4568 141.756 42.5948 141.789 40.7328 141.721C39.8019 141.69 38.8709 141.655 37.9399 141.549C37.0089 141.443 36.078 141.307 35.147 141.05C35.0775 141.03 35.0162 140.989 34.9726 140.932C34.9289 140.874 34.9053 140.804 34.9053 140.732C34.9053 140.66 34.9289 140.59 34.9726 140.533C35.0162 140.475 35.0775 140.434 35.147 140.415L35.1432 140.413Z" fill="#363636"/>
</svg>
